<svg width="59" height="60" viewBox="0 0 59 60" fill="none" xmlns="http://www.w3.org/2000/svg">
<path d="M20.4178 28.225C20.198 28.4628 20.0256 28.7431 19.9107 29.05C19.6692 29.6587 19.6692 30.3413 19.9107 30.95C20.0256 31.2569 20.198 31.5372 20.4178 31.775L27.6624 39.275C28.1172 39.7458 28.7339 40.0102 29.377 40.0102C30.0201 40.0102 30.6368 39.7458 31.0915 39.275C31.5463 38.8042 31.8017 38.1658 31.8017 37.5C31.8017 36.8342 31.5463 36.1958 31.0915 35.725L27.9522 32.5H36.6216C37.2621 32.5 37.8763 32.2366 38.3292 31.7678C38.782 31.2989 39.0365 30.663 39.0365 30C39.0365 29.337 38.782 28.7011 38.3292 28.2322C37.8763 27.7634 37.2621 27.5 36.6216 27.5H27.9522L31.0915 24.275C31.3179 24.0426 31.4975 23.7661 31.6201 23.4614C31.7427 23.1568 31.8059 22.83 31.8059 22.5C31.8059 22.17 31.7427 21.8432 31.6201 21.5386C31.4975 21.2339 31.3179 20.9574 31.0915 20.725C30.867 20.4907 30.6 20.3047 30.3057 20.1778C30.0114 20.0508 29.6958 19.9855 29.377 19.9855C29.0582 19.9855 28.7426 20.0508 28.4483 20.1778C28.154 20.3047 27.8869 20.4907 27.6624 20.725L20.4178 28.225ZM5.22827 30C5.22827 34.9445 6.64457 39.778 9.29806 43.8893C11.9516 48.0005 15.7231 51.2048 20.1357 53.097C24.5483 54.9892 29.4038 55.4843 34.0882 54.5196C38.7726 53.555 43.0754 51.174 46.4527 47.6777C49.83 44.1814 52.1299 39.7268 53.0617 34.8773C53.9935 30.0277 53.5152 25.0011 51.6875 20.4329C49.8597 15.8648 46.7645 11.9603 42.7933 9.21326C38.8221 6.46622 34.1531 5 29.377 5C26.2057 5 23.0655 5.64664 20.1357 6.90301C17.2058 8.15938 14.5437 10.0009 12.3013 12.3223C7.7725 17.0107 5.22827 23.3696 5.22827 30ZM48.6959 30C48.6959 33.9556 47.5629 37.8224 45.4401 41.1114C43.3173 44.4004 40.3001 46.9638 36.77 48.4776C33.24 49.9913 29.3556 50.3874 25.608 49.6157C21.8605 48.844 18.4182 46.9392 15.7164 44.1421C13.0146 41.3451 11.1746 37.7814 10.4292 33.9018C9.6838 30.0222 10.0664 26.0009 11.5286 22.3463C12.9908 18.6918 15.4669 15.5682 18.6439 13.3706C21.8209 11.173 25.5561 10 29.377 10C34.5007 10 39.4145 12.1071 43.0376 15.8579C46.6606 19.6086 48.6959 24.6957 48.6959 30Z" fill="black"/>
</svg>
