<svg width="59" height="60" viewBox="0 0 59 60" fill="none" xmlns="http://www.w3.org/2000/svg">
<path d="M38.1721 31.775C38.3919 31.5373 38.5643 31.2569 38.6792 30.95C38.9208 30.3414 38.9208 29.6587 38.6792 29.05C38.5643 28.7431 38.3919 28.4628 38.1721 28.225L30.9275 20.725C30.4728 20.2543 29.856 19.9898 29.2129 19.9898C28.5698 19.9898 27.9531 20.2543 27.4984 20.725C27.0436 21.1958 26.7882 21.8343 26.7882 22.5C26.7882 23.1658 27.0436 23.8043 27.4984 24.275L30.6377 27.5H21.9683C21.3279 27.5 20.7136 27.7634 20.2607 28.2322C19.8079 28.7011 19.5534 29.337 19.5534 30C19.5534 30.6631 19.8079 31.2989 20.2607 31.7678C20.7136 32.2366 21.3279 32.5 21.9683 32.5H30.6377L27.4984 35.725C27.272 35.9574 27.0924 36.2339 26.9698 36.5386C26.8472 36.8432 26.7841 37.17 26.7841 37.5C26.7841 37.83 26.8472 38.1568 26.9698 38.4615C27.0924 38.7661 27.272 39.0426 27.4984 39.275C27.7229 39.5093 27.99 39.6953 28.2842 39.8222C28.5785 39.9492 28.8941 40.0145 29.2129 40.0145C29.5317 40.0145 29.8474 39.9492 30.1416 39.8222C30.4359 39.6953 30.703 39.5093 30.9275 39.275L38.1721 31.775ZM53.3616 30C53.3616 25.0555 51.9453 20.222 49.2918 16.1108C46.6383 11.9995 42.8668 8.79521 38.4542 6.90302C34.0416 5.01083 29.1861 4.51575 24.5017 5.48038C19.8174 6.44501 15.5145 8.82603 12.1372 12.3223C8.75996 15.8187 6.46001 20.2732 5.52823 25.1228C4.59645 29.9723 5.07467 34.9989 6.90243 39.5671C8.73019 44.1353 11.8254 48.0397 15.7966 50.7867C19.7679 53.5338 24.4368 55 29.2129 55C35.6176 55 41.7599 52.3661 46.2886 47.6777C50.8174 42.9893 53.3616 36.6304 53.3616 30ZM9.89396 30C9.89396 26.0444 11.027 22.1776 13.1498 18.8886C15.2726 15.5996 18.2898 13.0362 21.8199 11.5224C25.35 10.0087 29.2344 9.6126 32.9819 10.3843C36.7294 11.156 40.1717 13.0608 42.8735 15.8579C45.5753 18.6549 47.4153 22.2186 48.1607 26.0982C48.9061 29.9778 48.5235 33.9992 47.0613 37.6537C45.5991 41.3082 43.123 44.4318 39.946 46.6294C36.769 48.827 33.0339 50 29.2129 50C24.0892 50 19.1754 47.8929 15.5524 44.1421C11.9293 40.3914 9.89396 35.3043 9.89396 30Z" fill="black"/>
</svg>
