<svg width="56" height="57" viewBox="0 0 56 57" fill="none" xmlns="http://www.w3.org/2000/svg">
<g clip-path="url(#clip0_12_58)">
<path d="M36.6424 17.0846L10.8579 21.0488C9.84155 21.2069 8.89869 21.6747 8.1579 22.3883C7.41711 23.1019 6.91443 24.0267 6.7184 25.0364C6.52236 26.0462 6.64252 27.0918 7.06249 28.0307C7.48245 28.9697 8.18178 29.7563 9.06514 30.2833L17.502 35.2755C17.7011 35.3996 17.8735 35.5622 18.0091 35.7537C18.1447 35.9451 18.2408 36.1617 18.2918 36.3908L20.2 46.0065C20.3634 46.8235 20.7284 47.5867 21.2618 48.2268C21.7952 48.8669 22.4801 49.3635 23.2543 49.6716C24.0284 49.9796 24.8673 50.0893 25.6946 49.9907C26.522 49.8921 27.3115 49.5884 27.9916 49.107C28.624 48.6496 29.146 48.0566 29.5196 47.3714L41.8189 24.3653C42.2537 23.5472 42.4527 22.6243 42.3936 21.6997C42.3345 20.7751 42.0196 19.8851 41.4842 19.129C40.9487 18.3729 40.2137 17.7805 39.3612 17.4178C38.5086 17.0551 37.5721 16.9364 36.656 17.0749L36.6424 17.0846ZM38.8706 22.7975L26.5713 45.8037C26.4063 46.1008 26.1543 46.3404 25.8493 46.4903C25.5442 46.6402 25.2007 46.6932 24.8646 46.6423C24.5286 46.5914 24.2161 46.439 23.9691 46.2055C23.7222 45.972 23.5525 45.6685 23.4829 45.3358L21.5611 35.7298C21.5341 35.6025 21.4997 35.4768 21.458 35.3535L30.8293 28.7169C31.1901 28.4614 31.4345 28.0731 31.509 27.6374C31.5834 27.2017 31.4817 26.7542 31.2263 26.3935C30.9708 26.0328 30.5825 25.7883 30.1468 25.7139C29.7111 25.6394 29.2636 25.7411 28.9029 25.9966L19.5315 32.6332C19.4291 32.553 19.322 32.4788 19.2108 32.4111L10.7876 27.4092C10.4969 27.2331 10.267 26.9723 10.1287 26.6619C9.99039 26.3514 9.95033 26.006 10.0139 25.6721C10.0774 25.3382 10.2415 25.0318 10.4842 24.7938C10.7269 24.5558 11.0365 24.3977 11.3716 24.3407L37.1561 20.3765C37.4597 20.3328 37.7695 20.3738 38.0513 20.495C38.3331 20.6161 38.576 20.8126 38.7533 21.063C38.9306 21.3133 39.0353 21.6077 39.056 21.9137C39.0767 22.2198 39.0126 22.5256 38.8706 22.7975Z" fill="black"/>
</g>
<defs>
<clipPath id="clip0_12_58">
<rect width="40" height="40" fill="white" transform="translate(0 24) rotate(-35.3055)"/>
</clipPath>
</defs>
</svg>
