<svg width="32" height="37" viewBox="0 0 32 37" fill="none" xmlns="http://www.w3.org/2000/svg">
<path d="M24.544 7.05329C24.1643 7.05329 23.793 7.1788 23.4773 7.41396C23.1616 7.64912 22.9155 7.98337 22.7702 8.37442C22.6248 8.76548 22.5868 9.19579 22.6609 9.61094C22.735 10.0261 22.9178 10.4074 23.1864 10.7067C23.4549 11.006 23.797 11.2099 24.1694 11.2924C24.5419 11.375 24.9279 11.3326 25.2788 11.1706C25.6296 11.0087 25.9294 10.7344 26.1404 10.3824C26.3514 10.0305 26.464 9.6167 26.464 9.19342C26.464 8.62582 26.2617 8.08147 25.9016 7.68012C25.5416 7.27876 25.0532 7.05329 24.544 7.05329ZM31.904 11.3692C31.8729 9.88949 31.6243 8.42547 31.168 7.03545C30.7612 5.84613 30.128 4.76919 29.312 3.87875C28.5197 2.96461 27.5513 2.26327 26.48 1.82779C25.2362 1.30375 23.9214 1.02027 22.592 0.989575C20.896 0.882568 20.352 0.882568 16 0.882568C11.648 0.882568 11.104 0.882568 9.408 0.989575C8.07864 1.02027 6.76375 1.30375 5.52 1.82779C4.45068 2.26768 3.48309 2.96841 2.688 3.87875C1.86788 4.76188 1.23868 5.84133 0.848 7.03545C0.377857 8.4218 0.123536 9.88745 0.0959999 11.3692C-8.9407e-08 13.2597 0 13.866 0 18.717C0 23.568 -8.9407e-08 24.1744 0.0959999 26.0648C0.123536 27.5466 0.377857 29.0122 0.848 30.3986C1.23868 31.5927 1.86788 32.6721 2.688 33.5553C3.48309 34.4656 4.45068 35.1663 5.52 35.6062C6.76375 36.1303 8.07864 36.4138 9.408 36.4444C11.104 36.5515 11.648 36.5515 16 36.5515C20.352 36.5515 20.896 36.5515 22.592 36.4444C23.9214 36.4138 25.2362 36.1303 26.48 35.6062C27.5513 35.1707 28.5197 34.4694 29.312 33.5553C30.1316 32.6681 30.7653 31.5903 31.168 30.3986C31.6243 29.0085 31.8729 27.5445 31.904 26.0648C31.904 24.1744 32 23.568 32 18.717C32 13.866 32 13.2597 31.904 11.3692ZM29.024 25.8508C29.0124 26.9829 28.8284 28.1045 28.48 29.168C28.2245 29.9441 27.8142 30.6454 27.28 31.219C26.761 31.8084 26.1332 32.2648 25.44 32.5565C24.4859 32.9449 23.4796 33.1499 22.464 33.1629C20.864 33.2521 20.272 33.2699 16.064 33.2699C11.856 33.2699 11.264 33.2699 9.664 33.1629C8.60943 33.1849 7.55935 33.0039 6.56 32.6279C5.89725 32.3213 5.29817 31.866 4.8 31.2903C4.26894 30.7174 3.86375 30.0155 3.616 29.2393C3.22537 28.1606 3.00871 27.0135 2.976 25.8508C2.976 24.0673 2.88 23.4075 2.88 18.717C2.88 14.0266 2.88 13.3667 2.976 11.5832C2.98317 10.4259 3.17272 9.27893 3.536 8.19469C3.81768 7.44192 4.25002 6.77089 4.8 6.2329C5.2861 5.6197 5.88686 5.13269 6.56 4.80615C7.53528 4.41387 8.5632 4.20883 9.6 4.19977C11.2 4.19977 11.792 4.09277 16 4.09277C20.208 4.09277 20.8 4.09277 22.4 4.19977C23.4156 4.21276 24.4219 4.41779 25.376 4.80615C26.1031 5.10693 26.7557 5.59594 27.28 6.2329C27.8043 6.78074 28.214 7.45052 28.48 8.19469C28.8356 9.28069 29.0197 10.4272 29.024 11.5832C29.104 13.3667 29.12 14.0266 29.12 18.717C29.12 23.4075 29.104 24.0673 29.024 25.8508ZM16 9.56794C14.3773 9.57147 12.7919 10.111 11.4442 11.1185C10.0966 12.126 9.04701 13.5561 8.42821 15.2282C7.80942 16.9002 7.64916 18.7392 7.96767 20.5128C8.28618 22.2864 9.06918 23.9149 10.2177 25.1927C11.3663 26.4704 12.8288 27.34 14.4206 27.6916C16.0123 28.0431 17.6619 27.8609 19.1607 27.1679C20.6596 26.4749 21.9406 25.3023 22.8418 23.7981C23.743 22.2939 24.224 20.5258 24.224 18.717C24.2261 17.5134 24.0147 16.3211 23.602 15.2089C23.1892 14.0967 22.5833 13.0863 21.819 12.2361C21.0547 11.3858 20.1471 10.7123 19.1485 10.2544C18.1498 9.79654 17.0798 9.56324 16 9.56794ZM16 24.6559C14.9462 24.6559 13.9161 24.3076 13.0399 23.655C12.1637 23.0024 11.4808 22.0749 11.0776 20.9897C10.6743 19.9045 10.5688 18.7104 10.7744 17.5584C10.98 16.4064 11.4874 15.3482 12.2325 14.5176C12.9777 13.687 13.927 13.1214 14.9606 12.8923C15.9941 12.6631 17.0654 12.7807 18.0389 13.2302C19.0125 13.6797 19.8446 14.4409 20.4301 15.4176C21.0155 16.3942 21.328 17.5424 21.328 18.717C21.328 19.4969 21.1902 20.2692 20.9224 20.9897C20.6547 21.7103 20.2622 22.365 19.7675 22.9164C19.2727 23.4679 18.6854 23.9054 18.0389 24.2038C17.3925 24.5023 16.6997 24.6559 16 24.6559Z" fill="white"/>
</svg>
