<svg width="35" height="30" viewBox="0 0 35 30" fill="none" xmlns="http://www.w3.org/2000/svg">
<path d="M34.9919 10.9419C35.0706 8.30153 34.5729 5.6809 33.5451 3.32335C32.8478 2.35599 31.88 1.70318 30.8105 1.47866C26.3866 1.01292 21.9444 0.822032 17.503 0.906806C13.0777 0.818184 8.65151 1.00291 4.24317 1.46021C3.37161 1.64416 2.56505 2.11848 1.9219 2.82528C0.490988 4.35638 0.331998 6.97584 0.173007 9.18947C-0.057669 13.1695 -0.057669 17.163 0.173007 21.1431C0.219003 22.389 0.37889 23.6257 0.649979 24.8324C0.841682 25.7641 1.22954 26.6261 1.77881 27.3412C2.42633 28.0855 3.25168 28.5868 4.14777 28.7801C7.57547 29.271 11.0292 29.4744 14.4822 29.3888C20.0468 29.4811 24.9278 29.3888 30.6992 28.8723C31.6173 28.6909 32.4659 28.1889 33.1318 27.4335C33.5769 26.9168 33.9093 26.2844 34.1016 25.5888C34.6702 23.5644 34.9495 21.4458 34.9283 19.3168C34.9919 18.2838 34.9919 12.0487 34.9919 10.9419ZM13.9098 20.4236V9.005L23.322 14.742C20.6828 16.4391 17.2009 18.3576 13.9098 20.4236Z" fill="white"/>
</svg>
