<svg width="32" height="31" viewBox="0 0 32 31" fill="none" xmlns="http://www.w3.org/2000/svg">
<path d="M32 4.44567C30.7973 5.04101 29.5255 5.43456 28.224 5.61409C29.5971 4.67811 30.626 3.20564 31.12 1.46983C29.8297 2.34627 28.4172 2.96377 26.944 3.2955C25.9593 2.077 24.648 1.2659 23.2157 0.989409C21.7834 0.712921 20.3113 0.986683 19.0301 1.76776C17.7489 2.54884 16.7311 3.79305 16.1364 5.30525C15.5417 6.81746 15.4037 8.51213 15.744 10.1235C13.1351 9.97292 10.5831 9.19779 8.25385 7.84845C5.92459 6.49912 3.87015 4.60576 2.224 2.29138C1.64662 3.44186 1.34323 4.74475 1.344 6.07051C1.34195 7.3017 1.60675 8.51437 2.11481 9.60055C2.62287 10.6867 3.35843 11.6127 4.256 12.296C3.21276 12.2636 2.19182 11.9442 1.28 11.3649V11.4562C1.28782 13.1813 1.81759 14.8503 2.7797 16.181C3.74182 17.5117 5.07721 18.4223 6.56 18.7589C5.98921 18.9571 5.3966 19.0616 4.8 19.0692C4.38702 19.0637 3.97508 19.021 3.568 18.9415C3.99026 20.4254 4.8074 21.7222 5.90572 22.6515C7.00404 23.5808 8.32892 24.0963 9.696 24.1263C7.38753 26.199 4.53741 27.3301 1.6 27.3395C1.06518 27.3415 0.530777 27.3049 0 27.23C2.99909 29.4395 6.4941 30.6124 10.064 30.6075C12.5275 30.6366 14.9714 30.1054 17.253 29.0448C19.5346 27.9842 21.608 26.4155 23.3523 24.4303C25.0966 22.4451 26.4767 20.0832 27.4121 17.4826C28.3474 14.8819 28.8193 12.0947 28.8 9.28368C28.8 8.97331 28.8 8.6447 28.8 8.31608C30.0555 7.24772 31.1384 5.93801 32 4.44567Z" fill="white"/>
</svg>
